{
  "title": "Hotel Transylvania 2 (2015) CAMRip [Rus]",
  "uid": 12626539,
  "size": 785379090,
  "categoryP": "video",
  "categoryS": "movies",
  "magnet": "?xt=urn:btih:53186cfbd7b46c959e2c02c091aa2b1fa45f33be&amp;dn=Hotel+Transylvania+2+%282015%29+CAMRip+%5BRus%5D&amp;tr=udp%3A%2F%2Ftracker.leechers-paradise.org%3A6969&amp;tr=udp%3A%2F%2Fzer0day.ch%3A1337&amp;tr=udp%3A%2F%2Fopen.demonii.com%3A1337&amp;tr=udp%3A%2F%2Ftracker.coppersurfer.tk%3A6969&amp;tr=udp%3A%2F%2Fexodus.desync.com%3A6969",
  "seeders": 52,
  "leechers": 1,
  "uploader": "nbdjod",
  "files": 1,
  "time": 1445782059,
  "description": "Hotel Transylvania 2 (2015) CAMRip [Rus]\r\n\r\n\r\nMI:\r\nGeneral\r\nFormat                                   : AVI\r\nFormat/Info                              : Audio Video Interleave\r\nFile size                                : 749 MiB\r\nDuration                                 : 1h 20mn\r\nOverall bit rate                         : 1 304 Kbps\r\nWriting application                      : VirtualDubMod 1.5.10.2 (build 2540/release)\r\nWriting library                          : VirtualDub build 35576/release\r\n\r\nVideo\r\nID                                       : 0\r\nFormat                                   : MPEG-4 Visual\r\nFormat profile                           : Advanced   \r\nFormat settings, BVOP                    : 2\r\nFormat settings, QPel                    : No\r\nFormat settings, GMC                     : No warppoints\r\nFormat settings, Matrix                  : Default (H.263)\r\nMuxing mode                              : Packed bitstream\r\nCodec ID                                 : XVID\r\nCodec ID/Hint                            : XviD\r\nDuration                                 : 1h 20mn\r\nBit rate                                 : 1 164 Kbps\r\nWidth                                    : 720 pixels\r\nHeight                                   : 352 pixels\r\nDisplay aspect ratio                     : 2.045\r\nFrame rate                               : 29.970 fps\r\nColor space                              : YUV\r\nChroma subsampling                       : 4:2:0\r\nBit depth                                : 8 bits\r\nScan type                                : Progressive\r\nCompression mode                         : Lossy\r\nBits/(Pixel*Frame)                       : 0.153\r\nStream size                              : 669 MiB (89%)\r\nWriting library                          : XviD 73\r\n\r\nAudio\r\nID                                       : 1\r\nFormat                                   : MPEG Audio\r\nFormat version                           : Version 1\r\nFormat profile                           : Layer 3\r\nMode                                     : Joint stereo\r\nCodec ID                                 : 55\r\nCodec ID/Hint                            : MP3\r\nDuration                                 : 1h 20mn\r\nBit rate mode                            : Constant\r\nBit rate                                 : 128 Kbps\r\nChannel(s)                               : 2 channels\r\nSampling rate                            : 48.0 KHz\r\nCompression mode                         : Lossy\r\nStream size                              : 73.5 MiB (10%)\r\nAlignment                                : Split accross interleaves\r\nInterleave, duration                     : 33 ms (1.00 video frame)\r\nInterleave, preload duration             : 500 ms\r\n\r\n\r\n\r\nScreens: \nhttp://i6.imageban.ru/out/2015/10/25/132ae11b467fd58243546b3b33d2b95e.png \nhttp://i4.imageban.ru/out/2015/10/25/26b7a4a6b8326f0a82a993e0eaadbc68.png \nhttp://i5.imageban.ru/out/2015/10/25/f8cb8bb9e2464418141f13fd6b4cb619.png \nhttp://i2.imageban.ru/out/2015/10/25/f951a2e8e1e16cb43bf70c61a25a84ad.png",
  "parsed": {
    "xt": "urn:btih:53186cfbd7b46c959e2c02c091aa2b1fa45f33be",
    "dn": "Hotel Transylvania 2 (2015) CAMRip [Rus]",
    "tr": [
      "udp://exodus.desync.com:6969",
      "udp://open.demonii.com:1337",
      "udp://tracker.coppersurfer.tk:6969",
      "udp://tracker.leechers-paradise.org:6969",
      "udp://zer0day.ch:1337"
    ],
    "infoHash": "53186cfbd7b46c959e2c02c091aa2b1fa45f33be",
    "infoHashBuffer": {
      "type": "Buffer",
      "data": [
        83,
        24,
        108,
        251,
        215,
        180,
        108,
        149,
        158,
        44,
        2,
        192,
        145,
        170,
        43,
        31,
        164,
        95,
        51,
        190
      ]
    },
    "name": "Hotel Transylvania 2 (2015) CAMRip [Rus]",
    "announce": [
      "udp://exodus.desync.com:6969",
      "udp://open.demonii.com:1337",
      "udp://tracker.coppersurfer.tk:6969",
      "udp://tracker.leechers-paradise.org:6969",
      "udp://zer0day.ch:1337"
    ],
    "urlList": []
  },
  "previous": 53,
  "peers": 64,
  "last_updated": "2016-12-25T01:12:28.420Z"
}